# File created by Blade
# Date/Time:  Fri Jan 16 19:00:24 2015
# Frame Rate: 120.000 fps
#------------------------------------------------------
:FULLY-SPECIFIED
:DEGREES
2469
root 18.720885 36.345281 -19.802796 -191.973289 -0.183868 -169.306921
Spine 20.594891 -1.721986 8.009542
Head -0.609348 -0.086029 3.844896
LeftShoulder -9.923068 -30.636484 12.906296
LeftArm -6.639764 -10.190902 -13.626828
LeftForeArm -5.221623 0.000000 3.434306
LeftHand -2.837164 -0.000000 1.141011
LeftHandThumb1 -26.253704 0.000000 33.147579
RightShoulder -8.639438 -3.194802 1.489983
RightArm -3.180430 48.635473 34.475701
RightForeArm -35.134694 0.000000 38.680866
RightHand -15.967824 -0.000000 -5.209811
RightHandThumb1 -24.326973 -0.000000 -32.862282
LeftUpLeg 8.402302 3.117903 3.033707
LeftLeg 4.587871 -0.000000 -0.000000
LeftFoot -19.326487 29.010453 -8.262904
LeftToeBase 20.147203 -0.000000 -0.000000
RightUpLeg -73.848601 12.139559 17.325029
RightLeg 111.355475 -0.000000 -0.000000
RightFoot 33.688014 -37.634701 -19.841253
RightToeBase 20.984110 -0.000000 -0.000000
2470
root 18.707597 36.334076 -19.803185 -191.725049 -0.128086 -169.493082
Spine 20.251653 -1.617521 7.804762
Head -0.429070 -0.060015 3.919292
LeftShoulder -9.951928 -30.571171 12.954841
LeftArm -6.637759 -10.172654 -13.601903
LeftForeArm -5.269302 -0.000000 3.480807
LeftHand -2.862016 -0.000000 1.118471
LeftHandThumb1 -26.253704 0.000000 33.147579
RightShoulder -8.737950 -3.256247 1.600668
RightArm -3.115117 48.611991 34.644021
RightForeArm -35.153204 -0.000000 38.896062
RightHand -16.123058 -0.000000 -5.183193
RightHandThumb1 -24.326973 -0.000000 -32.862282
LeftUpLeg 8.267516 3.152510 2.806276
LeftLeg 4.397314 -0.000000 -0.000000
LeftFoot -19.219954 29.072858 -8.148198
LeftToeBase 20.159238 -0.000000 -0.000000
RightUpLeg -72.933640 12.211834 17.067461
RightLeg 110.830442 -0.000000 -0.000000
RightFoot 33.718812 -37.704492 -19.801528
RightToeBase 21.518156 -0.000000 -0.000000
2471
root 18.693761 36.322876 -19.803499 -191.477363 -0.085138 -169.682437
Spine 19.902284 -1.515225 7.595000
Head -0.263244 -0.070402 3.985223
LeftShoulder -9.939969 -30.543752 13.003780
LeftArm -6.687004 -10.116245 -13.558872
LeftForeArm -5.341925 -0.000000 3.508767
LeftHand -2.863121 0.000000 1.121261
LeftHandThumb1 -26.253704 0.000000 33.147579
RightShoulder -8.833715 -3.338166 1.733506
RightArm -3.021308 48.597298 34.799941
RightForeArm -35.096022 -0.000000 39.019478
RightHand -16.056698 -0.000000 -5.286834
RightHandThumb1 -24.326973 -0.000000 -32.862282
LeftUpLeg 8.153805 3.065315 2.552350
LeftLeg 4.161983 -0.000000 -0.000000
LeftFoot -19.103391 29.234057 -8.051988
LeftToeBase 20.147762 -0.000000 -0.000000
RightUpLeg -71.997209 12.236389 16.848454
RightLeg 110.250924 -0.000000 -0.000000
RightFoot 33.981425 -37.872407 -19.854772
RightToeBase 21.275342 -0.000000 -0.000000
2472
root 18.678425 36.310463 -19.803849 -191.222414 -0.028160 -169.861646
Spine 19.542694 -1.412215 7.412360
Head -0.098266 -0.050427 4.018055
LeftShoulder -9.925678 -30.503881 13.039166
LeftArm -6.758215 -10.075817 -13.511431
LeftForeArm -5.427872 -0.000000 3.540175
LeftHand -2.835547 -0.000000 1.173188
LeftHandThumb1 -26.253704 0.000000 33.147579
RightShoulder -8.902145 -3.417334 1.853010
RightArm -2.956121 48.658535 34.949157
RightForeArm -35.135633 -0.000000 39.211204
RightHand -16.127423 -0.000000 -5.299625
RightHandThumb1 -24.326973 -0.000000 -32.862282
LeftUpLeg 8.030446 2.999580 2.309663
LeftLeg 3.933539 -0.000000 -0.000000
LeftFoot -18.987511 29.365112 -7.897322
LeftToeBase 20.158316 -0.000000 -0.000000
RightUpLeg -71.056132 12.244952 16.657895
RightLeg 109.642147 -0.000000 -0.000000
RightFoot 34.220020 -38.088040 -19.862569
RightToeBase 21.430290 -0.000000 -0.000000
